<?xml version="1.0" encoding="utf-8"?>
<!-- Generator: Adobe Illustrator 16.0.0, SVG Export Plug-In . SVG Version: 6.00 Build 0)  -->
<!DOCTYPE svg PUBLIC "-//W3C//DTD SVG 1.1//EN" "http://www.w3.org/Graphics/SVG/1.1/DTD/svg11.dtd">
<svg version="1.1" id="Layer_1" xmlns="http://www.w3.org/2000/svg" xmlns:xlink="http://www.w3.org/1999/xlink" x="0px" y="0px"
	 width="512px" height="512px" viewBox="0 0 512 512" enable-background="new 0 0 512 512" xml:space="preserve">
<g>
	<path fill-rule="evenodd" clip-rule="evenodd" fill="#8B5CF6" d="M339.734,207.959c-2.659-0.007-3.572,0.427-3.53,3.373
		c0.192,13.24,0.044,26.485,0.103,39.729c0.024,5.766-0.498,11.458-1.488,17.135c-7.197,41.198-49.572,70.804-90.736,63.357
		c-39.654-7.173-66.744-39.495-66.813-79.742c-0.023-13.369-0.13-26.739,0.087-40.104c0.053-3.246-0.919-3.768-3.912-3.759
		c-36.231,0.111-72.463,0.072-108.695,0.072c0,32.504,0,65.009,0,97.514c1.356,1.246,3.049,0.938,4.643,0.944
		c7.248,0.034,14.497,0.053,21.744-0.007c2.379-0.021,4.043,0.589,4.854,3.098c2.505,7.751,5.87,15.147,9.802,22.268
		c1.617,2.929,1.05,5.028-1.275,7.269c-5.398,5.2-10.669,10.536-15.921,15.887c-2.988,3.044-3.02,3.815-0.064,6.779
		c21,21.062,42.032,42.089,63.088,63.094c3.131,3.122,3.889,3.102,7.056-0.02c5.875-5.788,11.725-11.604,17.482-17.509
		c1.951-2.001,3.722-2.406,6.276-1.068c6.651,3.482,13.581,6.373,20.78,8.517c2.883,0.857,3.966,2.368,3.904,5.385
		c-0.166,7.993-0.073,15.993-0.042,23.991c0.006,1.594-0.302,3.286,0.945,4.643c32.504,0,65.009,0,97.514,0
		c1.246-1.355,0.938-3.049,0.944-4.643c0.031-8.122,0.089-16.246-0.027-24.367c-0.039-2.694,0.974-4.08,3.536-4.88
		c7.163-2.236,14.218-4.825,20.791-8.482c2.819-1.568,4.734-1.074,6.892,1.162c5.638,5.845,11.421,11.551,17.207,17.251
		c3.168,3.122,3.927,3.143,7.056,0.021c21.057-21.005,42.09-42.032,63.089-63.094c2.955-2.964,2.922-3.735-0.065-6.779
		c-5.076-5.173-10.245-10.255-15.356-15.394c-3.677-3.695-3.766-3.989-1.28-8.737c3.484-6.653,6.69-13.435,8.976-20.591
		c0.926-2.899,2.562-3.88,5.498-3.822c7.12,0.138,14.245,0.063,21.368,0.03c1.594-0.007,3.286,0.302,4.643-0.944
		c0-32.505,0-65.01,0-97.514C412.447,208.02,376.091,208.049,339.734,207.959z M416.121,275.576
		c-5.747-0.133-11.51,0.165-17.245-0.132c-3.073-0.158-4.243,0.772-4.895,3.778c-2.964,13.693-7.319,26.917-14.021,39.303
		c-3.211,5.937-6.636,11.761-10.681,17.131c-2.571,3.415-2.233,5.442,0.944,8.177c4.439,3.821,8.306,8.304,12.565,12.346
		c1.564,1.485,1.514,2.321,0.002,3.804c-7.677,7.525-15.287,15.121-22.805,22.804c-1.506,1.539-2.322,1.535-3.795,0.005
		c-4.766-4.954-9.732-9.714-14.519-14.649c-1.482-1.527-2.527-2.104-4.627-0.697c-17.944,12.035-37.569,19.995-58.874,23.717
		c-2.101,0.367-2.761,1.251-2.708,3.45c0.173,7.246-0.006,14.501,0.111,21.749c0.031,1.974-0.537,2.5-2.493,2.484
		c-10.875-0.094-21.751-0.097-32.626,0.001c-1.984,0.018-2.507-0.554-2.477-2.5c0.11-7.248-0.055-14.501,0.104-21.747
		c0.048-2.167-0.55-3.11-2.693-3.479c-21.319-3.669-40.909-11.7-58.882-23.679c-1.806-1.203-2.828-1.179-4.366,0.433
		c-4.833,5.062-9.925,9.875-14.773,14.922c-1.496,1.559-2.311,1.498-3.794-0.016c-7.524-7.677-15.125-15.281-22.807-22.802
		c-1.528-1.496-1.543-2.316-0.001-3.794c4.782-4.584,9.35-9.39,14.122-13.983c1.588-1.529,2.069-2.602,0.591-4.64
		c-12.995-17.91-21.826-37.693-26.193-59.415c-0.419-2.084-1.304-2.74-3.475-2.679c-6.245,0.176-12.5,0.006-18.749,0.098
		c-1.723,0.025-2.37-0.352-2.354-2.236c0.089-11,0.116-22.001-0.017-33c-0.027-2.235,0.931-2.342,2.642-2.33
		c8,0.056,16.001,0.025,24.001,0.025c7.501,0,15.004,0.129,22.5-0.069c2.723-0.072,3.587,0.504,3.499,3.408
		c-0.415,13.516,0.085,26.956,3.67,40.145c13.525,49.76,60.205,83.659,111.577,80.923c53.995-2.876,98.076-45.206,103.168-98.959
		c0.71-7.496,0.471-14.985,0.499-22.478c0.008-2.036,0.127-3.064,2.709-3.041c15.749,0.141,31.501,0.115,47.251,0.019
		c2.182-0.013,2.655,0.664,2.637,2.722c-0.099,10.75-0.109,21.501,0.007,32.251C418.877,275.139,418.174,275.623,416.121,275.576z"
		/>
	<path fill-rule="evenodd" clip-rule="evenodd" fill="#8B5CF6" d="M142.39,94.804c8.248-0.123,16.499-0.123,24.746,0
		c2.124,0.031,2.705-0.565,2.678-2.682c-0.115-9.123-0.049-18.248-0.049-27.373c-10.001,0-20.003,0-30.004,0
		c0,9.125,0.066,18.25-0.049,27.373C139.685,94.239,140.266,94.835,142.39,94.804z"/>
	<path fill-rule="evenodd" clip-rule="evenodd" fill="#8B5CF6" d="M346.418,94.804c8.248-0.123,16.499-0.123,24.746,0
		c2.124,0.031,2.705-0.565,2.679-2.682c-0.115-9.123-0.05-18.248-0.05-27.373c-10.001,0-20.003,0-30.004,0
		c0,9.125,0.066,18.25-0.049,27.373C343.713,94.239,344.295,94.835,346.418,94.804z"/>
	<path fill-rule="evenodd" clip-rule="evenodd" fill="#8B5CF6" d="M127.015,154.803c4.12-0.128,8.247-0.04,12.371-0.04
		c4.375,0,8.75-0.084,13.122,0.04c1.806,0.052,2.315-0.494,2.295-2.295c-0.091-8.498-0.091-16.997,0-25.494
		c0.02-1.802-0.494-2.314-2.295-2.295c-8.498,0.091-16.998,0.091-25.495,0c-1.802-0.019-2.314,0.494-2.295,2.295
		c0.091,8.498,0.091,16.997,0,25.495C124.699,154.31,125.208,154.859,127.015,154.803z"/>
	<path fill-rule="evenodd" clip-rule="evenodd" fill="#8B5CF6" d="M361.047,124.718c-1.802-0.019-2.315,0.493-2.296,2.295
		c0.091,8.498,0.091,16.997,0,25.494c-0.02,1.802,0.489,2.349,2.296,2.295c4.245-0.126,8.497-0.04,12.746-0.04
		s8.501-0.086,12.746,0.04c1.806,0.054,2.315-0.493,2.297-2.295c-0.091-8.497-0.091-16.997,0-25.494
		c0.019-1.802-0.493-2.315-2.295-2.296C378.043,124.809,369.544,124.809,361.047,124.718z"/>
	<path fill-rule="evenodd" clip-rule="evenodd" fill="#8B5CF6" d="M211.811,186.153c-0.07,20.252,0.012,40.505-0.104,60.757
		c-0.015,2.69,0.483,3.536,3.402,3.522c27.752-0.132,55.507-0.123,83.26-0.011c2.761,0.012,3.51-0.581,3.489-3.436
		c-0.142-20.251-0.023-40.505-0.14-60.757c-0.015-2.605,0.787-4.327,2.601-6.146c35.758-35.859,21.307-96.253-26.809-112.043
		c-4.307-1.414-8.817-2.208-13.232-3.29c-5.251,0-10.502,0-15.752,0c-0.222,0.816-0.92,0.631-1.5,0.734
		c-26.92,4.806-45.67,19.907-54.22,45.82c-8.574,25.984-2.223,49.245,16.67,68.974C211.215,182.093,211.819,183.771,211.811,186.153
		z M269.563,220.393c-8.482-0.103-16.967-0.083-25.451-0.012c-1.688,0.014-2.407-0.294-2.383-2.219
		c0.106-8.482,0.083-16.967,0.015-25.451c-0.013-1.697,0.348-2.428,2.249-2.408c8.482,0.093,16.968,0.121,25.45-0.014
		c2.212-0.035,2.403,0.917,2.367,2.677c-0.09,4.24-0.029,8.482-0.029,12.725c0,4.118-0.078,8.236,0.036,12.351
		C271.864,219.785,271.446,220.416,269.563,220.393z M223.647,114.771c7.248-13.815,23.313-22.119,38.049-19.666
		c16.903,2.815,29.292,14.743,31.939,30.709c2.084,12.571-1.507,23.357-10.076,32.646c-1.286,1.394-2.674,1.943-4.579,1.919
		c-7.487-0.095-14.978-0.04-22.466-0.04c-6.99,0-13.981-0.103-20.968,0.054c-2.572,0.057-4.407-0.666-6.191-2.568
		C218.549,146.313,216.189,128.988,223.647,114.771z"/>
</g>
</svg>
