<?xml version="1.0" encoding="utf-8"?>
<!-- Generator: Adobe Illustrator 16.0.0, SVG Export Plug-In . SVG Version: 6.00 Build 0)  -->
<!DOCTYPE svg PUBLIC "-//W3C//DTD SVG 1.1//EN" "http://www.w3.org/Graphics/SVG/1.1/DTD/svg11.dtd">
<svg version="1.1" id="Layer_1" xmlns="http://www.w3.org/2000/svg" xmlns:xlink="http://www.w3.org/1999/xlink" x="0px" y="0px"
	 width="512px" height="512px" viewBox="0 0 512 512" enable-background="new 0 0 512 512" xml:space="preserve">
<path fill="#8B5CF6" d="M145.74,64.75c54.243,0,108.487,0,162.729,0c1.813,0.894,3.32,2.163,4.747,3.59
	c30.199,30.229,60.394,60.463,90.672,90.612c2.786,2.774,3.942,5.71,3.939,9.622c-0.076,78.585-0.037,157.172-0.071,235.757
	c-0.009,18.396-12.284,35.825-29.478,42.351c-3.441,1.307-7.077,1.19-10.567,2.021c-74.239,0-148.481,0-222.722,0
	c-16.656-1.864-27.86-11.237-35.089-25.818c-2.913-5.876-4.301-12.229-4.3-18.846c0.003-98.208-0.014-196.416,0.018-294.624
	c0.006-18.58,11.949-35.794,29.177-42.575C138.351,65.441,142.126,65.616,145.74,64.75z M136.749,402.568
	c0.003,9.753,6.196,16.121,15.766,16.124c69.474,0.023,138.949,0.022,208.422,0c9.406-0.003,15.757-6.349,15.76-15.758
	c0.023-71.724,0.001-143.446,0.064-215.169c0.003-2.393-0.531-3.117-3.029-3.093c-13.869,0.131-27.739,0.111-41.608,0.053
	c-25.467-0.106-45.297-19.95-45.394-45.416c-0.051-13.62-0.129-27.242,0.08-40.859c0.049-3.216-0.871-3.784-3.895-3.777
	c-42.984,0.108-85.968,0.071-128.952,0.075c-11.409,0.001-17.222,5.841-17.223,17.303c-0.003,48.232-0.001,96.465-0.001,144.697
	C136.741,305.354,136.731,353.961,136.749,402.568z M316.76,140.092c0.132,7.473,5.71,14.001,13.069,14.439
	c8.262,0.492,16.575,0.113,24.755,0.113c-12.613-12.616-25.145-25.149-37.854-37.862C316.73,124.64,316.624,132.368,316.76,140.092z
	 M170.123,271.654c-2.789-0.012-3.538,0.621-3.461,3.445c0.217,7.991,0.151,15.994,0.026,23.991
	c-0.033,2.122,0.567,2.677,2.68,2.675c58.237-0.058,116.474-0.058,174.712,0c2.104,0.002,2.718-0.541,2.686-2.67
	c-0.126-7.996-0.189-16,0.024-23.992c0.075-2.813-0.658-3.463-3.456-3.451c-28.743,0.115-57.486,0.07-86.23,0.07
	C228.109,271.725,199.116,271.768,170.123,271.654z M343.331,361.784c2.79,0.011,3.536-0.626,3.46-3.448
	c-0.217-7.992-0.151-15.995-0.026-23.992c0.033-2.123-0.568-2.675-2.682-2.673c-58.237,0.058-116.475,0.058-174.711,0
	c-2.108-0.002-2.718,0.543-2.684,2.671c0.125,7.996,0.189,15.999-0.026,23.992c-0.076,2.814,0.662,3.461,3.458,3.45
	c28.743-0.116,57.487-0.071,86.23-0.071C285.344,361.713,314.337,361.669,343.331,361.784z M169.747,211.673
	c-2.439-0.021-3.12,0.602-3.07,3.06c0.162,8.119,0.134,16.245,0.011,24.366c-0.032,2.122,0.565,2.681,2.68,2.676
	c28.242-0.07,56.483-0.07,84.725,0c2.11,0.005,2.716-0.546,2.683-2.673c-0.123-8.12-0.148-16.246,0.013-24.365
	c0.048-2.453-0.621-3.085-3.066-3.064c-13.87,0.122-27.742,0.059-41.613,0.059C197.987,211.731,183.866,211.793,169.747,211.673z"/>
</svg>
