<?xml version="1.0" encoding="utf-8"?>
<!-- Generator: Adobe Illustrator 16.0.0, SVG Export Plug-In . SVG Version: 6.00 Build 0)  -->
<!DOCTYPE svg PUBLIC "-//W3C//DTD SVG 1.1//EN" "http://www.w3.org/Graphics/SVG/1.1/DTD/svg11.dtd">
<svg version="1.1" id="Layer_1" xmlns="http://www.w3.org/2000/svg" xmlns:xlink="http://www.w3.org/1999/xlink" x="0px" y="0px"
	 width="512px" height="512px" viewBox="0 0 512 512" enable-background="new 0 0 512 512" xml:space="preserve">
<g>
	<path fill-rule="evenodd" clip-rule="evenodd" fill="#8B5CF6" d="M448.702,397.708c-0.808-4.374-0.998-8.842-3.044-12.983
		c-6.79-13.746-17.407-22.717-32.455-25.953c-10.277-2.21-20.706-1.09-31.081-0.56c2.228-0.147,4.451-0.331,6.608-1.015
		c17.016-5.389,30.742-23.405,30.974-41.255c0.258-19.853-8.553-34.521-26.219-43.659c-2.722-1.408-3.909-3.094-3.763-6.123
		c0.182-3.74,0.047-7.496,0.042-11.245c-0.034-26.844-20.415-47.216-47.279-47.236c-21.62-0.015-43.242,0.005-64.862-0.009
		c-4.623-0.003-4.814-0.212-4.837-4.888c-0.027-5.499,0.04-10.998-0.024-16.497c-0.058-4.911-0.716-5.555-5.726-5.591
		c-6.874-0.049-13.749-0.046-20.622,0c-5.14,0.034-5.693,0.622-5.732,5.936c-0.039,5.124-0.005,10.249-0.011,15.373
		c-0.006,5.659-0.009,5.67-5.527,5.672c-21.621,0.005-43.241-0.008-64.863,0.005c-22.285,0.014-40.73,14.924-45.602,36.666
		c-1.5,6.697-1.038,13.448-0.891,20.165c0.092,4.15-1.02,6.66-5.017,8.411c-6.775,2.969-12.11,7.989-16.349,13.976
		c-14.345,20.259-10.76,46.807,8.481,62.613c5.416,4.448,11.469,7.864,18.213,8.541c-0.442,0.113-1.397-0.204-2.358-0.224
		c-7.738-0.167-15.502-0.697-23.207,0.265c-18.031,2.252-36.981,17.515-38.802,38.868c0,16.497,0.036,32.995-0.049,49.493
		c-0.01,1.876,0.421,2.323,2.3,2.301c9.248-0.111,18.497-0.051,27.746-0.051c1.445-1.699,1.132-3.767,1.139-5.735
		c0.041-12.739-0.114-25.48,0.068-38.217c0.131-9.174,5.398-14.71,14.376-14.808c19.607-0.214,39.217-0.211,58.824-0.001
		c8.832,0.095,14.011,5.553,14.396,14.434c0.06,1.372,0.033,2.747,0.033,4.121c0.003,11.615-0.013,23.229,0.013,34.845
		c0.004,1.853-0.223,3.784,1.14,5.361c9.999,0,19.998,0,29.997,0c1.371-1.591,1.056-3.533,1.06-5.378
		c0.026-12.997,0.021-25.994,0.012-38.99c-0.017-22.458-14.979-41.101-36.967-45.673c-9.493-1.974-19.123-1.09-28.712-0.608
		c2.562-0.197,5.022-0.851,7.414-1.874c22.182-9.486,33.373-33.852,25.889-56.786c-4.04-12.38-12.178-21.338-23.799-27.147
		c-1.936-0.968-3.851-1.798-3.81-4.5c0.074-4.996-0.28-10.01,0.144-14.989c0.62-7.276,5.598-12.116,12.858-12.849
		c1.495-0.151,2.997-0.104,4.496-0.104c55.486-0.002,110.971-0.001,166.458-0.001c0.624,0,1.249-0.003,1.875,0.003
		c10.039,0.103,15.865,5.855,15.984,15.808c0.037,3.123-0.21,6.267,0.063,9.367c0.342,3.908-1.189,6.013-4.745,7.804
		c-21.176,10.668-30.768,35.241-22.154,57.33c5.872,15.06,16.904,24.635,32.798,28.196c-7.114-1.119-14.356-0.714-21.568-0.621
		c-23.323,0.299-44.073,21.073-44.344,44.396c-0.162,13.994-0.039,27.992-0.022,41.988c0.002,1.613-0.138,3.28,1.063,4.629
		c9.999,0,19.998,0,29.996,0c1.444-1.699,1.133-3.767,1.139-5.735c0.041-12.739-0.114-25.48,0.067-38.217
		c0.132-9.174,5.399-14.71,14.377-14.808c19.606-0.214,39.217-0.211,58.823-0.001c8.832,0.095,14.011,5.553,14.396,14.434
		c0.06,1.372,0.033,2.747,0.033,4.121c0.003,11.615-0.013,23.229,0.013,34.845c0.005,1.853-0.224,3.784,1.141,5.361
		c9.248,0,18.498-0.061,27.745,0.051c1.879,0.022,2.311-0.425,2.3-2.301C448.665,430.205,448.702,413.957,448.702,397.708z
		 M139.576,328.707c-8.23-0.076-14.898-6.893-14.823-15.153c0.074-8.237,6.884-14.901,15.147-14.824
		c8.236,0.076,14.903,6.886,14.827,15.147C154.651,322.103,147.826,328.783,139.576,328.707z M358.724,313.864
		c-0.069-8.266,6.598-15.065,14.835-15.135c8.262-0.069,15.066,6.599,15.14,14.836c0.072,8.246-6.615,15.069-14.841,15.142
		C365.602,328.779,358.792,322.101,358.724,313.864z"/>
	<path fill-rule="evenodd" clip-rule="evenodd" fill="#8B5CF6" d="M94.574,184.81c38.112-0.111,76.227-0.097,114.339-0.018
		c2.315,0.004,2.923-0.549,2.878-2.873c-0.156-8.12,0.037-16.246-0.121-24.365c-0.045-2.331,0.572-2.878,2.881-2.871
		c28.116,0.087,56.233,0.087,84.35,0c2.312-0.007,2.925,0.543,2.88,2.872c-0.157,8.12,0.035,16.246-0.122,24.365
		c-0.044,2.328,0.568,2.877,2.88,2.872c38.113-0.078,76.227-0.078,114.34,0c2.299,0.004,2.895-0.527,2.885-2.863
		c-0.099-24.367,0.138-48.737-0.148-73.101c-0.17-14.477-6.563-26.12-17.947-35.062c-6.201-4.871-13.509-7.087-20.958-9.015
		c-83.989,0-167.979,0-251.968,0c-0.208,0.566-0.702,0.574-1.194,0.658c-22.044,3.747-37.719,22.154-37.784,44.542
		c-0.069,23.868,0.003,47.736-0.051,71.603C91.708,183.686,91.785,184.818,94.574,184.81z M121.712,151.731
		c0.058-13.746-0.004-27.491,0.043-41.237c0.032-9.42,6.336-15.729,15.769-15.735c39.862-0.029,79.724-0.013,119.586-0.013
		c39.111,0,78.224-0.002,117.336,0.001c11.437,0.001,17.256,5.826,17.262,17.271c0.006,13.246-0.069,26.492,0.063,39.736
		c0.024,2.488-0.684,3.053-3.088,3.039c-17.994-0.103-35.988-0.108-53.981,0.005c-2.482,0.016-3.089-0.671-3.043-3.085
		c0.152-8.12-0.02-16.245,0.108-24.365c0.035-2.156-0.622-2.654-2.703-2.651c-48.233,0.058-96.468,0.058-144.702-0.002
		c-2.119-0.003-2.708,0.562-2.677,2.678c0.122,8.245-0.023,16.495,0.1,24.74c0.032,2.129-0.578,2.681-2.686,2.671
		c-18.243-0.083-36.488-0.113-54.73,0.024C121.723,154.83,121.704,153.699,121.712,151.731z"/>
</g>
</svg>
