<?xml version="1.0" encoding="utf-8"?>
<!-- Generator: Adobe Illustrator 16.0.0, SVG Export Plug-In . SVG Version: 6.00 Build 0)  -->
<!DOCTYPE svg PUBLIC "-//W3C//DTD SVG 1.1//EN" "http://www.w3.org/Graphics/SVG/1.1/DTD/svg11.dtd">
<svg version="1.1" id="Layer_1" xmlns="http://www.w3.org/2000/svg" xmlns:xlink="http://www.w3.org/1999/xlink" x="0px" y="0px"
	 width="512px" height="512px" viewBox="0 0 512 512" enable-background="new 0 0 512 512" xml:space="preserve">
<g>
	<path fill="#8B5CF6" d="M17.006,91.972c23.554-0.024,47.107-0.129,70.66,0.015c3.491,0.021,4.383-0.819,4.361-4.341
		c-0.154-23.554-0.052-47.108-0.033-70.662c-23.984,0-47.969,0.052-71.95-0.074c-2.593-0.014-3.126,0.519-3.113,3.112
		C17.058,44.003,17.006,67.987,17.006,91.972z"/>
	<path fill="#8B5CF6" d="M421.369,87.693c0.001,2.068-0.732,4.301,2.988,4.278c22.965-0.143,45.929-0.096,68.893-0.033
		c2.127,0.006,3.027-0.44,3.011-2.804c-0.149-24.05-0.198-48.1-0.274-72.15c-24.996,0-49.99,0-74.986,0
		c0.119,1.698,0.342,3.397,0.344,5.095C421.369,43.951,421.355,65.822,421.369,87.693z"/>
	<path fill="#8B5CF6" d="M87.56,421.313c-19.645,0.148-39.292,0.11-58.937,0.04c-3.869-0.014-7.772,0.535-11.617-0.375
		c0,24.997,0,49.991,0,74.987c24.159,0.078,48.318,0.114,72.477,0.28c3.259,0.021,2.435-2.081,2.437-3.768
		c0.027-22.296-0.082-44.593,0.117-66.889C92.069,421.898,90.886,421.289,87.56,421.313z"/>
	<path fill="#8B5CF6" d="M129.4,72.962c0,5.312,0.066,10.623-0.034,15.932c-0.039,2.034,0.242,3.093,2.732,3.062
		c10.621-0.137,21.243-0.111,31.865-0.015c2.227,0.02,2.958-0.648,2.936-2.911c-0.101-10.621-0.083-21.243-0.009-31.865
		c0.013-1.934-0.402-2.783-2.56-2.764c-10.777,0.093-21.556,0.092-32.333-0.002c-2.048-0.018-2.692,0.57-2.641,2.631
		C129.488,62.338,129.4,67.653,129.4,72.962z"/>
	<path fill="#8B5CF6" d="M239.921,57.384c0.02-2.167-0.519-3.01-2.845-2.987c-10.612,0.106-21.229,0.111-31.841-0.005
		c-2.292-0.025-2.869,0.699-2.846,2.909c0.105,10.458,0.143,20.918-0.018,31.375c-0.043,2.795,0.983,3.358,3.494,3.273
		c4.989-0.168,9.988-0.05,14.983-0.05c5.307,0,10.619-0.116,15.92,0.051c2.486,0.079,3.188-0.75,3.16-3.191
		C239.81,78.301,239.828,67.842,239.921,57.384z"/>
	<path fill="#8B5CF6" d="M309.773,91.951c2.504,0.031,3.171-0.801,3.146-3.208c-0.109-10.452-0.097-20.905-0.008-31.357
		c0.02-2.158-0.511-3.014-2.846-2.99c-10.608,0.111-21.218,0.116-31.825-0.005c-2.318-0.026-2.908,0.702-2.843,2.922
		c0.153,5.143,0.05,10.295,0.05,15.443c0,5.305,0.084,10.61-0.04,15.913c-0.053,2.258,0.354,3.331,3.01,3.292
		C288.867,91.81,299.322,91.826,309.773,91.951z"/>
	<path fill="#8B5CF6" d="M88.938,129.333c-10.433,0.145-20.872,0.168-31.303-0.011c-2.84-0.049-3.29,1.018-3.211,3.48
		c0.165,5.134,0.05,10.277,0.05,15.418c0,5.138,0.091,10.281-0.042,15.417c-0.059,2.269,0.361,3.306,3.004,3.266
		c10.433-0.153,20.871-0.163,31.303,0.004c2.852,0.046,3.275-1.066,3.247-3.535c-0.116-10.277-0.117-20.559,0.002-30.836
		C92.016,130.172,91.502,129.297,88.938,129.333z"/>
	<path fill="#8B5CF6" d="M89.035,202.366c-5.305,0.132-10.614,0.042-15.921,0.042c-5.307,0-10.617,0.061-15.921-0.034
		c-1.877-0.032-2.786,0.304-2.764,2.504c0.104,10.77,0.085,21.542,0.013,32.312c-0.014,2.005,0.602,2.702,2.662,2.687
		c10.771-0.085,21.542-0.086,32.313-0.003c2.175,0.017,2.56-0.944,2.55-2.82c-0.058-10.615-0.095-21.23,0.024-31.843
		C92.016,202.874,91.212,202.311,89.035,202.366z"/>
	<path fill="#8B5CF6" d="M54.429,309.997c-0.021,2.246,0.66,2.943,2.917,2.92c10.454-0.102,20.911-0.143,31.364,0.019
		c2.841,0.044,3.354-1.058,3.276-3.551c-0.159-5.146-0.048-10.298-0.048-15.447c0-4.995-0.099-9.99,0.043-14.98
		c0.068-2.403-0.289-3.617-3.193-3.569c-10.451,0.173-20.908,0.114-31.363,0.028c-2.077-0.018-3.046,0.277-3.012,2.747
		C54.557,288.771,54.531,299.386,54.429,309.997z"/>
	<path fill="#8B5CF6" d="M456.024,129.337c-10.6,0.129-21.201,0.113-31.802,0.011c-2.274-0.022-2.927,0.714-2.906,2.941
		c0.099,10.444,0.098,20.892,0.003,31.335c-0.02,2.328,0.521,3.306,3.101,3.273c10.445-0.134,20.892-0.137,31.336,0.002
		c2.592,0.035,3.13-0.948,3.071-3.265c-0.132-5.296-0.042-10.6-0.042-15.9c0-5.145-0.094-10.292,0.045-15.434
		C458.888,130.142,458.402,129.309,456.024,129.337z"/>
	<path fill="#8B5CF6" d="M424.443,239.872c10.465-0.075,20.933-0.088,31.398,0.009c2.231,0.02,3.035-0.661,2.983-2.927
		c-0.126-5.308-0.041-10.622-0.041-15.934s-0.069-10.624,0.037-15.933c0.039-1.957-0.467-2.739-2.585-2.721
		c-10.777,0.092-21.558,0.084-32.335,0.006c-2.156-0.016-2.58,0.928-2.57,2.824c0.061,10.622,0.083,21.245-0.01,31.867
		C421.3,239.457,422.355,239.885,424.443,239.872z"/>
	<path fill="#8B5CF6" d="M166.898,424.351c0.02-2.206-0.615-3.021-2.888-3.001c-10.596,0.086-21.194,0.098-31.791-0.01
		c-2.321-0.024-2.879,0.815-2.86,2.982c0.089,10.439,0.149,20.883-0.031,31.322c-0.049,2.896,1.104,3.267,3.539,3.188
		c4.98-0.161,9.972-0.049,14.958-0.049c5.298-0.001,10.601-0.102,15.894,0.046c2.416,0.066,3.218-0.671,3.188-3.155
		C166.782,445.234,166.802,434.791,166.898,424.351z"/>
	<path fill="#8B5CF6" d="M236.81,421.34c-10.464,0.112-20.93,0.093-31.396,0.009c-2.144-0.018-3.049,0.491-3.026,2.851
		c0.109,10.621,0.126,21.244-0.013,31.864c-0.031,2.469,0.966,2.772,3.038,2.756c10.465-0.081,20.931-0.104,31.396,0.013
		c2.533,0.028,3.183-0.9,3.115-3.275c-0.148-5.15-0.045-10.309-0.045-15.463s-0.101-10.312,0.045-15.462
		C239.991,422.26,239.343,421.313,236.81,421.34z"/>
	<path fill="#8B5CF6" d="M348.369,88.443c-0.027,2.497,0.464,3.565,3.286,3.521c10.296-0.165,20.599-0.118,30.896-0.023
		c2.259,0.02,3.359-0.353,3.326-3.003c-0.138-10.61-0.134-21.223,0-31.833c0.03-2.489-1.063-2.731-3.063-2.693
		c-5.147,0.097-10.298,0.033-15.447,0.033c-5.307,0-10.616,0.13-15.916-0.057c-2.51-0.088-3.117,0.754-3.088,3.158
		C348.488,67.844,348.483,78.145,348.369,88.443z"/>
	<path fill="#8B5CF6" d="M57.33,385.816c5.301-0.153,10.609-0.05,15.916-0.05c5.15,0.002,10.3-0.067,15.448,0.032
		c2.202,0.044,3.361-0.251,3.315-2.995c-0.176-10.452-0.151-20.911-0.013-31.363c0.033-2.554-0.867-3.114-3.221-3.091
		c-10.455,0.105-20.911,0.094-31.364,0.006c-2.099-0.018-3.023,0.35-2.993,2.769c0.133,10.608,0.126,21.224,0.003,31.834
		C54.394,385.265,55.096,385.879,57.33,385.816z"/>
	<path fill="#8B5CF6" d="M395.744,369.52c25.636-2.457,51.258-5.051,76.884-7.612c7.718-0.771,15.431-1.584,24.303-2.494
		c-70.441-56.463-139.987-112.21-209.981-168.315c0,87.861,0,175.02,0,262.941c24.251-22.769,47.981-45.046,72.072-67.663
		c0.816,1.689,1.487,3.063,2.146,4.438c4.969,10.395,9.938,20.788,14.905,31.182c11.216,23.454,22.425,46.912,33.652,70.362
		c0.801,1.671,1.002,4.075,4.098,2.545c9.627-4.756,19.315-9.394,29.048-13.927c2.217-1.033,1.954-2.063,1.067-3.866
		c-3.506-7.124-6.859-14.32-10.28-21.485c-13.081-27.396-26.171-54.785-39.237-82.187
		C393.64,371.798,391.704,369.907,395.744,369.52z M379.861,333.706c-5.74,0.605-11.476,1.422-17.237,1.648
		c-3.429,0.134-5.775,1.563-8.112,3.797c-8.917,8.522-17.944,16.931-26.934,25.377c-0.863,0.811-1.751,1.596-3.184,2.898
		c0-33.074,0-65.289,0-98.313c25.835,20.706,51.3,41.115,77.6,62.193C393.96,332.181,386.912,332.963,379.861,333.706z"/>
</g>
</svg>
