<?xml version="1.0" encoding="utf-8"?>
<!-- Generator: Adobe Illustrator 16.0.0, SVG Export Plug-In . SVG Version: 6.00 Build 0)  -->
<!DOCTYPE svg PUBLIC "-//W3C//DTD SVG 1.1//EN" "http://www.w3.org/Graphics/SVG/1.1/DTD/svg11.dtd">
<svg version="1.1" id="Layer_1" xmlns="http://www.w3.org/2000/svg" xmlns:xlink="http://www.w3.org/1999/xlink" x="0px" y="0px"
	 width="512px" height="512px" viewBox="0 0 512 512" enable-background="new 0 0 512 512" xml:space="preserve">
<g>
	<path fill-rule="evenodd" clip-rule="evenodd" fill="#8B5CF6" d="M124.736,313.747c-0.02,8.308,6.619,14.98,14.92,14.995
		c8.292,0.015,15.023-6.659,15.044-14.913c0.021-8.208-6.754-15.023-14.96-15.049C131.503,298.755,124.756,305.485,124.736,313.747z
		"/>
	<path fill-rule="evenodd" clip-rule="evenodd" fill="#8B5CF6" d="M334.689,306.638c0.008-3.221-0.515-4.522-4.146-4.359
		c-7.357,0.33-14.746,0.266-22.109,0.019c-3.085-0.104-3.952,0.647-3.88,3.821c0.231,10.18,0.086,20.366,0.086,30.741
		c-1.762-0.559-2.483-1.777-3.412-2.702c-13.006-12.971-26.051-25.901-38.915-39.012c-2.218-2.262-3.242-2.124-5.408,0.049
		c-40.303,40.45-80.708,80.799-121.046,121.215c-1.608,1.612-3.15,2.389-5.501,2.358c-10.744-0.141-21.493-0.171-32.235,0.012
		c-2.797,0.048-3.462-0.639-3.456-3.448c0.099-47.605,0.107-95.212-0.01-142.816c-0.008-3.188,0.847-3.816,3.896-3.807
		c36.859,0.114,73.72,0.038,110.58,0.146c2.825,0.008,3.525-0.682,3.446-3.47c-0.214-7.491-0.283-15.001,0.019-22.485
		c0.142-3.509-0.964-4.196-4.283-4.189c-47.855,0.091-95.709,0.037-143.564,0.018c0,68.937,0.021,137.875-0.079,206.813
		c-0.004,2.767,0.648,3.231,3.287,3.229c88.919-0.082,177.839-0.068,266.758-0.068c-0.031-1.374-0.089-2.747-0.09-4.121
		C334.622,398.6,334.591,352.619,334.689,306.638z M304.681,415.97c0.016,2.003-0.374,2.789-2.609,2.785
		c-41.457-0.068-82.913-0.052-124.37-0.061c-0.324,0-0.649-0.124-0.975-0.19c-0.25-0.3-0.501-0.601-0.751-0.901
		c0.927-0.569,2.009-0.982,2.759-1.73c26.16-26.111,52.317-52.224,78.365-78.445c2.155-2.169,3.194-1.878,5.16,0.113
		c13.333,13.507,26.771,26.912,40.249,40.273c1.538,1.524,2.202,3.012,2.182,5.192C304.581,393.993,304.595,404.982,304.681,415.97z
		"/>
	<path fill-rule="evenodd" clip-rule="evenodd" fill="#8B5CF6" d="M445.511,123.652c-18.585-18.556-37.155-37.125-55.711-55.71
		c-1.239-1.242-2.54-2.365-4.09-3.191c-0.25,0-0.5,0-0.75,0c-0.311,0.376-0.593,0.781-0.936,1.124
		c-34.725,34.724-69.2,69.704-104.264,104.082c-27.914,27.368-39.269,60.521-37.333,98.946c0.104,2.058,0.959,2.117,2.502,2.095
		c4.747-0.07,9.498,0.037,14.244-0.063c26.016-0.554,49.495-8.504,70.055-24.535c12.852-10.021,23.572-22.324,35.101-33.749
		c28.213-27.963,56.26-56.094,84.373-84.157c0-0.25,0-0.5,0-0.75C447.876,126.192,446.753,124.892,445.511,123.652z M404.56,130.207
		c-29.136,28.999-58.087,58.183-87.348,87.054c-11.813,11.656-26.276,18.753-43.148,22.139c3.372-17.059,10.68-31.625,22.519-43.597
		c28.728-29.053,57.726-57.838,86.57-86.776c1.42-1.424,2.217-1.739,3.786-0.112c5.725,5.934,11.578,11.745,17.482,17.501
		C405.851,127.81,406.165,128.609,404.56,130.207z"/>
</g>
</svg>
