<?xml version="1.0" encoding="utf-8"?>
<!-- Generator: Adobe Illustrator 16.0.0, SVG Export Plug-In . SVG Version: 6.00 Build 0)  -->
<!DOCTYPE svg PUBLIC "-//W3C//DTD SVG 1.1//EN" "http://www.w3.org/Graphics/SVG/1.1/DTD/svg11.dtd">
<svg version="1.1" id="Layer_1" xmlns="http://www.w3.org/2000/svg" xmlns:xlink="http://www.w3.org/1999/xlink" x="0px" y="0px"
	 width="512px" height="512px" viewBox="0 0 512 512" enable-background="new 0 0 512 512" xml:space="preserve">
<g>
	<path fill-rule="evenodd" clip-rule="evenodd" fill="#8B5CF6" d="M456.768,87.121c-8.924-14.117-21.475-22.008-38.367-22.112
		c-22.53-0.14-45.063-0.035-67.593-0.035c-84.925,0-169.849,0.012-254.773-0.024c-6.634-0.002-13.092,0.858-19.051,3.778
		c-14.015,6.869-23.36,17.376-25.183,33.477c0,102.942,0,205.884,0,308.827c0.748,5.136,1.667,10.197,4.472,14.731
		c8.876,14.346,21.502,22.348,38.561,22.462c22.264,0.15,44.529,0.037,66.793,0.037c85.191,0,170.383-0.012,255.574,0.023
		c6.772,0.003,13.347-0.914,19.414-3.945c13.826-6.909,23.033-17.373,24.82-33.309c0-102.675,0-205.352,0-308.027
		C460.769,97.449,459.85,91.998,456.768,87.121z M80.358,147.577c0.231-12.261,0.061-24.529,0.099-36.794
		c0.034-10.542,5.446-16.033,15.984-16.035c106.787-0.024,213.575-0.024,320.362,0c10.536,0.002,15.943,5.494,15.976,16.042
		c0.038,12.398-0.099,24.798,0.085,37.194c0.046,3.084-0.707,3.917-3.869,3.912c-57.594-0.105-115.187-0.077-172.78-0.077
		c-57.193,0-114.386-0.039-171.579,0.094C81.069,151.921,80.293,151.026,80.358,147.577z M432.785,401.447
		c-0.001,11.881-5.14,17.051-16.98,17.052c-106.109,0.007-212.219,0.006-318.328,0c-11.875-0.001-17.025-5.15-17.025-17.006
		c-0.005-72.251,0.023-144.501-0.084-216.751c-0.005-3.421,0.674-4.365,4.268-4.356c57.32,0.134,114.641,0.094,171.961,0.094
		s114.64,0.036,171.961-0.087c3.492-0.008,4.326,0.78,4.32,4.304C432.758,256.947,432.789,329.197,432.785,401.447z"/>
	<path fill-rule="evenodd" clip-rule="evenodd" fill="#8B5CF6" d="M404.381,345.334c0.054-2.518-0.762-3.095-3.179-3.088
		c-32.931,0.077-65.862,0.073-98.794,0.004c-2.273-0.005-2.953,0.625-2.911,2.903c0.133,7.465,0.188,14.937-0.021,22.396
		c-0.079,2.85,0.796,3.51,3.55,3.487c16.132-0.131,32.264-0.064,48.396-0.064c16.532,0,33.065-0.06,49.597,0.062
		c2.613,0.019,3.424-0.651,3.363-3.304C404.212,360.268,404.221,352.797,404.381,345.334z"/>
	<path fill-rule="evenodd" clip-rule="evenodd" fill="#8B5CF6" d="M271.04,231.815c0.008-3.187-0.853-3.921-3.96-3.916
		c-51.33,0.099-102.659,0.101-153.989-0.001c-3.213-0.006-4.268,0.647-4.259,4.083c0.12,45.063,0.118,90.127,0,135.19
		c-0.008,3.266,1.002,3.881,4.022,3.868c25.73-0.116,51.462-0.066,77.193-0.066c25.598,0,51.197-0.062,76.794,0.077
		c3.212,0.018,4.219-0.595,4.208-4.045C270.92,321.941,270.928,276.878,271.04,231.815z M238.786,342.359
		c-32.53-0.096-65.06-0.099-97.589,0.003c-2.85,0.009-3.817-0.473-3.799-3.625c0.149-26.129,0.157-52.262-0.005-78.391
		c-0.021-3.342,1.097-3.813,4.02-3.79c16.13,0.129,32.263,0.062,48.394,0.062c16.398,0,32.797,0.051,49.195-0.054
		c2.491-0.017,3.352,0.471,3.34,3.2c-0.115,26.396-0.121,52.794,0.005,79.191C242.36,341.866,241.476,342.367,238.786,342.359z"/>
	<path fill-rule="evenodd" clip-rule="evenodd" fill="#8B5CF6" d="M260.468,137.552c25.716-0.122,51.433-0.07,77.15-0.07
		c25.85,0,51.699-0.027,77.55,0.045c2.396,0.006,3.5-0.317,3.415-3.154c-0.224-7.456-0.175-14.924-0.021-22.383
		c0.052-2.487-0.724-3.131-3.165-3.128c-51.966,0.066-103.934,0.063-155.899,0.007c-2.214-0.002-2.98,0.534-2.934,2.863
		c0.146,7.326,0.238,14.663-0.031,21.981C256.414,136.938,257.438,137.566,260.468,137.552z"/>
	<path fill-rule="evenodd" clip-rule="evenodd" fill="#8B5CF6" d="M108.978,142.246c10.542-0.005,18.977-8.521,18.926-19.108
		c-0.05-10.561-8.63-19.002-19.161-18.851c-10.435,0.15-18.684,8.469-18.728,18.886C89.971,133.757,98.416,142.251,108.978,142.246z
		"/>
	<path fill-rule="evenodd" clip-rule="evenodd" fill="#8B5CF6" d="M400.619,227.895c-16.128,0.159-32.26,0.075-48.392,0.075
		c-16.397,0-32.795,0.066-49.191-0.063c-2.794-0.023-3.626,0.738-3.554,3.542c0.19,7.328,0.132,14.664,0.022,21.995
		c-0.031,2.187,0.16,3.255,2.898,3.246c32.928-0.11,65.856-0.112,98.784,0c2.847,0.011,3.225-1.026,3.182-3.438
		c-0.127-7.197-0.195-14.402,0.025-21.594C404.487,228.653,403.633,227.865,400.619,227.895z"/>
	<path fill-rule="evenodd" clip-rule="evenodd" fill="#8B5CF6" d="M404.372,288.438c0.043-2.33-0.423-3.24-3.026-3.233
		c-33.062,0.089-66.123,0.078-99.185,0.014c-2.125-0.005-2.691,0.624-2.66,2.699c0.117,7.464,0.184,14.934-0.024,22.393
		c-0.08,2.862,0.81,3.512,3.563,3.489c16.263-0.131,32.527-0.064,48.792-0.064c16.397,0,32.795-0.06,49.191,0.06
		c2.648,0.02,3.422-0.721,3.359-3.361C404.211,303.104,404.238,295.769,404.372,288.438z"/>
</g>
</svg>
