<?xml version="1.0" encoding="utf-8"?>
<!-- Generator: Adobe Illustrator 16.0.0, SVG Export Plug-In . SVG Version: 6.00 Build 0)  -->
<!DOCTYPE svg PUBLIC "-//W3C//DTD SVG 1.1//EN" "http://www.w3.org/Graphics/SVG/1.1/DTD/svg11.dtd">
<svg version="1.1" id="Layer_1" xmlns="http://www.w3.org/2000/svg" xmlns:xlink="http://www.w3.org/1999/xlink" x="0px" y="0px"
	 width="512px" height="512px" viewBox="0 0 512 512" enable-background="new 0 0 512 512" xml:space="preserve">
<path fill-rule="evenodd" clip-rule="evenodd" fill="#717171" d="M64.75,243.978c1.144,1.135,0.853,2.503,0.624,3.86l-0.335,0.075
	l-0.289-0.186C64.75,246.477,64.75,245.228,64.75,243.978z"/>
<path fill-rule="evenodd" clip-rule="evenodd" fill="#717171" d="M448.066,262.077c-0.227-1.356-0.486-2.718,0.636-3.852
	c0,1.25,0,2.5,0,3.75l-0.305,0.132L448.066,262.077z"/>
<path fill-rule="evenodd" clip-rule="evenodd" fill="#747474" d="M249.911,65.385c-0.772-0.061-1.754,0.602-2.184-0.635
	c0.75,0,1.5,0,2.25,0c0.256,0.169,0.332,0.319,0.227,0.451C250.108,65.323,250.011,65.385,249.911,65.385z"/>
<path fill-rule="evenodd" clip-rule="evenodd" fill="#464646" d="M249.911,65.385c0.037-0.21,0.059-0.422,0.066-0.635
	c0.75,0,1.5,0,2.25,0C251.646,65.66,250.781,65.531,249.911,65.385z"/>
<path fill-rule="evenodd" clip-rule="evenodd" fill="#4F4F4F" d="M265.725,64.75c-0.5,0.983-0.999,0.782-1.5,0
	C264.726,64.75,265.225,64.75,265.725,64.75z"/>
<g>
	<path fill-rule="evenodd" clip-rule="evenodd" fill="#8B5CF6" d="M448.702,242.478c-0.658-7.71-1.999-15.278-4.965-22.471
		c-12.094-29.331-33.403-48.202-64.141-56.25c-2.5-0.655-3.806-1.742-4.359-4.324c-5.596-26.08-18.195-48.072-38.286-65.771
		c-11.391-10.035-24.203-17.547-38.371-22.848c-9.63-3.604-19.617-5.451-29.855-6.065c-1,0-2,0-3,0c-0.5,0.472-0.999,0.472-1.5,0
		c-3.999,0-7.999,0-11.998,0c-0.661,0.649-1.495,0.289-2.25,0.387c-0.755-0.098-1.589,0.263-2.25-0.387c-1,0-2,0-3,0
		c-4.337,1.131-8.863,0.796-13.24,1.884c-7.295,1.814-14.45,3.99-21.316,7.038c-25.636,11.375-45.525,29.076-58.579,54.027
		c-2.098,4.012-4.63,6.057-9.01,7.273c-33.527,9.306-57.181,30.082-70.877,62.096c-3.949,9.23-6.126,18.916-6.955,28.912
		c0,5.999,0,11.999,0,17.998c0.883,1.178-0.024,2.645,0.624,3.86c3.562,41.539,33.665,72.862,57.119,82.452
		c0-10.908-0.052-21.776,0.05-32.643c0.018-1.877-0.798-2.907-2.082-4.026c-23.238-20.248-32.025-52.568-21.314-81.386
		c10.978-29.535,32.782-46.07,63.965-49.538c6.411-0.713,8.558-3.335,10.556-8.796c12.796-34.959,45.84-58.608,81.951-59.129
		c37.563-0.542,70.812,21.439,84.874,55.988c4.93,12.111,6.408,24.817,6.9,37.705c0.087,2.289,0.56,3.313,3.101,3.27
		c3.613-0.062,7.233,0.362,10.853,0.498c31.129,1.164,57.009,27.483,57.305,58.575c0.199,21.08-8.495,37.845-25.386,50.41
		c-0.933,0.694-2.32,0.97-2.314,2.621c0.033,10.675,0.017,21.35,0.017,32.146c29.691-9.805,54.712-42.351,57.1-73.906
		c0.673-1.208-0.252-2.679,0.636-3.852C448.702,252.977,448.702,247.727,448.702,242.478z"/>
	<path fill-rule="evenodd" clip-rule="evenodd" fill="#8B5CF6" d="M359.161,271.855c-26.46-26.385-52.881-52.808-79.274-79.259
		c-1.323-1.326-2.636-1.914-4.556-1.909c-26.12,0.07-52.242-0.07-78.361,0.087c-24.357,0.147-44.394,20.136-44.441,44.437
		c-0.11,56.365-0.23,112.731,0.081,169.094c0.1,17.99,9.096,31.185,24.946,39.717c4.171,2.246,8.876,2.867,13.178,4.679
		c43.495,0,86.989,0,130.483,0c0.262-0.215,0.51-0.6,0.785-0.62c17.984-1.322,38.845-18.308,38.922-44.165
		c0.127-42.492,0.025-84.984,0.076-127.478C361.003,274.556,360.513,273.203,359.161,271.855z M279.292,235.434
		c12.34,12.348,24.617,24.633,36.955,36.979c-9.706,0-19.635,0.14-29.556-0.068c-3.955-0.083-7.243-3.322-7.328-7.243
		C279.149,255.167,279.292,245.226,279.292,235.434z M330.959,402.391c-0.006,10.155-6.165,16.304-16.329,16.309
		c-38.599,0.016-77.196,0.016-115.794,0c-10.175-0.004-16.336-6.146-16.344-16.291c-0.019-27.605-0.006-55.212-0.006-82.817
		c0-27.231-0.003-54.463,0.001-81.694c0.002-11.251,5.839-17.157,16.977-17.165c15.365-0.009,30.73,0.111,46.092-0.093
		c3.254-0.043,3.797,0.93,3.755,3.919c-0.176,12.738-0.101,25.481-0.069,38.223c0.059,23.132,16.468,39.584,39.608,39.68
		c12.991,0.054,25.983,0.097,38.973-0.062c2.702-0.033,3.213,0.756,3.205,3.308C330.936,337.935,330.979,370.162,330.959,402.391z"
		/>
</g>
</svg>
