<?xml version="1.0" encoding="utf-8"?>
<!-- Generator: Adobe Illustrator 16.0.0, SVG Export Plug-In . SVG Version: 6.00 Build 0)  -->
<!DOCTYPE svg PUBLIC "-//W3C//DTD SVG 1.1//EN" "http://www.w3.org/Graphics/SVG/1.1/DTD/svg11.dtd">
<svg version="1.1" id="Layer_1" xmlns="http://www.w3.org/2000/svg" xmlns:xlink="http://www.w3.org/1999/xlink" x="0px" y="0px"
	 width="512px" height="512px" viewBox="0 0 512 512" enable-background="new 0 0 512 512" xml:space="preserve">
<g>
	<path fill="#8B5CF6" d="M340.754,364.132c0.016-2.019-0.609-2.481-2.52-2.461c-8.245,0.097-16.494,0.144-24.737-0.022
		c-2.387-0.049-2.862,0.658-2.841,2.914c0.114,12.492,0.068,24.988,0.051,37.482c-0.015,10.614-6.087,16.654-16.759,16.656
		c-58.851,0.007-117.7,0.008-176.55-0.001c-10.645-0.001-16.658-6.045-16.658-16.733c-0.006-96.833-0.006-193.667,0-290.5
		c0-10.694,6.004-16.716,16.667-16.717c58.849-0.007,117.699-0.007,176.549-0.001c10.681,0.002,16.735,6.029,16.75,16.66
		c0.016,13.494,0.059,26.989-0.051,40.482c-0.019,2.259,0.46,2.961,2.843,2.912c8.118-0.167,16.243-0.15,24.361-0.008
		c2.269,0.04,2.929-0.482,2.907-2.852c-0.127-14.118,0.154-28.241-0.122-42.355c-0.327-16.734-7.855-29.551-22.015-38.518
		c-5.214-3.302-11.144-4.56-16.909-6.32c-63.992,0-127.985,0-191.977,0c-3.613,0.866-7.389,0.692-10.944,2.09
		c-17.228,6.78-29.171,23.995-29.175,42.573c-0.032,98.208-0.015,196.416-0.019,294.624c0,6.617,1.387,12.97,4.301,18.846
		c7.229,14.581,18.433,23.954,35.089,25.818c64.242,0,128.483,0,192.727,0c0.387-0.919,1.252-0.608,1.93-0.727
		c20.417-3.554,36.471-21.665,36.959-42.238C340.941,391.875,340.652,378,340.754,364.132z"/>
	<path fill="#8B5CF6" d="M250.779,178.732c-0.163-8.12-0.135-16.246-0.011-24.366c0.032-2.129-0.582-2.677-2.688-2.673
		c-38.238,0.062-76.476,0.062-114.715-0.001c-2.111-0.003-2.716,0.548-2.684,2.674c0.125,7.996,0.19,15.998-0.025,23.99
		c-0.075,2.817,0.663,3.472,3.459,3.451c18.868-0.139,37.738-0.072,56.607-0.072c18.993,0,37.988-0.046,56.982,0.057
		C250.138,181.805,250.829,181.197,250.779,178.732z"/>
	<path fill="#8B5CF6" d="M247.484,331.652c-18.869,0.117-37.738,0.063-56.607,0.063c-18.995,0.001-37.99,0.06-56.983-0.069
		c-2.677-0.018-3.287,0.707-3.228,3.293c0.18,7.994,0.116,15.994,0.028,23.992c-0.021,1.906,0.153,2.842,2.516,2.838
		c38.363-0.08,76.727-0.072,115.09-0.013c2.007,0.003,2.483-0.6,2.46-2.518c-0.1-8.121-0.168-16.248,0.029-24.366
		C250.855,332.176,250.05,331.639,247.484,331.652z"/>
	<path fill="#8B5CF6" d="M133.376,241.777c9.12-0.112,18.242-0.048,27.363-0.048c9.121,0,18.243-0.068,27.363,0.049
		c2.134,0.028,2.703-0.587,2.672-2.693c-0.12-8.245-0.124-16.494,0.002-24.738c0.033-2.149-0.612-2.67-2.702-2.661
		c-18.242,0.08-36.484,0.083-54.726-0.002c-2.136-0.01-2.696,0.591-2.666,2.691c0.12,8.245,0.124,16.494-0.002,24.738
		C130.647,241.257,131.281,241.802,133.376,241.777z"/>
	<path fill="#8B5CF6" d="M133.353,301.77c18.242-0.084,36.484-0.082,54.727-0.002c2.096,0.01,2.729-0.524,2.696-2.666
		c-0.125-8.244-0.122-16.494-0.001-24.738c0.031-2.112-0.55-2.715-2.677-2.688c-9.12,0.117-18.242,0.05-27.363,0.05
		s-18.243,0.063-27.363-0.049c-2.103-0.025-2.724,0.531-2.691,2.668c0.125,8.244,0.122,16.493,0.001,24.738
		C130.651,301.189,131.224,301.777,133.353,301.77z"/>
	<path fill="#8B5CF6" d="M439.835,254.724c-29.297-19.478-58.559-39.008-87.833-58.52c-13.575-9.048-27.156-18.084-41.292-27.497
		c-0.001,13.534-0.114,26.396,0.08,39.252c0.048,3.098-0.687,3.87-3.825,3.854c-27.611-0.141-55.227-0.038-82.84-0.149
		c-2.749-0.011-3.493,0.57-3.48,3.422c0.125,27.488,0.134,54.977-0.003,82.465c-0.016,3.307,0.683,4.281,4.167,4.262
		c27.487-0.164,54.977-0.052,82.465-0.155c2.692-0.011,3.715,0.466,3.511,3.399c-0.295,4.229-0.075,8.491-0.075,12.738
		c0,8.801,0,17.602,0,26.889c0.999-0.623,1.507-0.922,1.995-1.246c42.457-28.306,84.896-56.636,127.403-84.861
		C442.961,256.682,441.817,256.042,439.835,254.724z M386.774,258.078c-15.16,10.029-30.285,20.111-46.069,30.609
		c0-4.906-0.171-9.131,0.061-13.334c0.156-2.814-0.521-3.725-3.57-3.709c-27.6,0.137-55.198,0.015-82.796,0.168
		c-3.244,0.018-3.845-0.914-3.757-3.912c0.224-7.737,0.195-15.487,0.007-23.226c-0.063-2.564,0.795-3.004,3.128-2.997
		c27.724,0.076,55.448-0.008,83.171,0.129c3.111,0.016,4.061-0.697,3.832-3.84c-0.305-4.168-0.075-8.375-0.075-13.219
		c7.232,4.825,13.923,9.297,20.62,13.756c8.402,5.596,16.797,11.205,25.23,16.755C388.009,256.215,388.642,256.843,386.774,258.078z
		"/>
</g>
</svg>
