<?xml version="1.0" encoding="utf-8"?>
<!-- Generator: Adobe Illustrator 16.0.0, SVG Export Plug-In . SVG Version: 6.00 Build 0)  -->
<!DOCTYPE svg PUBLIC "-//W3C//DTD SVG 1.1//EN" "http://www.w3.org/Graphics/SVG/1.1/DTD/svg11.dtd">
<svg version="1.1" id="Layer_1" xmlns="http://www.w3.org/2000/svg" xmlns:xlink="http://www.w3.org/1999/xlink" x="0px" y="0px"
	 width="512px" height="512px" viewBox="0 0 512 512" enable-background="new 0 0 512 512" xml:space="preserve">
<g>
	<path fill="#8B5CF6" d="M241.824,361.419c0.032-2.127-0.571-2.68-2.683-2.675c-27.25,0.07-54.499,0.07-81.748,0
		c-2.114-0.005-2.713,0.554-2.681,2.676c0.123,8.123,0.151,16.251-0.011,24.373c-0.049,2.457,0.629,3.084,3.069,3.063
		c13.499-0.125,26.999-0.061,40.499-0.061s27.001-0.064,40.499,0.059c2.444,0.023,3.117-0.608,3.067-3.063
		C241.674,377.669,241.7,369.542,241.824,361.419z"/>
	<path fill="#8B5CF6" d="M358.839,361.427c0.032-2.112-0.55-2.688-2.674-2.684c-27.249,0.071-54.498,0.071-81.747,0.002
		c-2.104-0.005-2.725,0.53-2.689,2.667c0.125,8.123,0.148,16.251-0.011,24.373c-0.048,2.441,0.604,3.093,3.062,3.07
		c13.498-0.127,26.998-0.062,40.498-0.062c13.5,0.001,27.001-0.062,40.499,0.06c2.428,0.021,3.127-0.584,3.076-3.055
		C358.688,377.677,358.718,369.55,358.839,361.427z"/>
	<path fill="#8B5CF6" d="M241.776,139.746c-0.001,4.249,0.081,8.5-0.04,12.746c-0.052,1.784,0.455,2.333,2.279,2.312
		c8.497-0.093,16.997-0.089,25.494-0.002c1.78,0.018,2.332-0.455,2.312-2.279c-0.094-8.497-0.09-16.997-0.002-25.494
		c0.019-1.78-0.454-2.332-2.278-2.312c-8.497,0.093-16.997,0.089-25.494,0.002c-1.78-0.019-2.368,0.451-2.311,2.28
		C241.865,131.244,241.776,135.496,241.776,139.746z"/>
	<path fill="#8B5CF6" d="M419.945,109.427c0-6.619-1.378-12.976-4.308-18.849c-7.396-14.828-18.775-24.327-35.844-25.828
		c-82.011,0-164.023,0-246.034,0c-3.614,0.866-7.391,0.691-10.947,2.091c-17.233,6.782-29.179,24.001-29.185,42.586
		c-0.033,98.234-0.015,196.468-0.019,294.701c0,6.619,1.387,12.973,4.302,18.851c7.231,14.587,18.438,23.962,35.099,25.825
		c82.262,0,164.522,0,246.784,0c3.614-0.865,7.391-0.69,10.948-2.091c17.235-6.783,29.178-23.999,29.185-42.586
		C419.959,305.895,419.941,207.66,419.945,109.427z M388.794,401.529c-0.001,11.425-5.849,17.269-17.281,17.269
		c-76.499,0.003-152.998,0.003-229.497,0c-11.418,0-17.255-5.849-17.256-17.287c-0.004-48.249-0.002-96.498-0.002-144.747
		c0-48.249-0.002-96.498,0.001-144.748c0.001-11.443,5.824-17.26,17.276-17.26c76.499-0.003,152.997-0.003,229.496,0
		c11.437,0,17.262,5.829,17.263,17.28C388.797,208.533,388.797,305.031,388.794,401.529z"/>
	<path fill="#8B5CF6" d="M358.791,160.169c0-1.204,0-2.407,0-4.185c-1.529,1.043-2.63,1.775-3.712,2.534
		c-27.798,19.494-55.615,38.959-83.349,58.545c-2.141,1.51-3.381,1.494-5.396-0.145c-10.369-8.433-20.916-16.646-31.306-25.052
		c-2.018-1.633-3.338-1.964-5.641-0.201c-23.993,18.375-48.086,36.618-72.201,54.834c-1.753,1.325-2.491,2.661-2.483,4.923
		c0.092,24.625,0.124,49.249-0.025,73.873c-0.019,3.089,0.966,3.553,3.727,3.549c65.499-0.072,130.998-0.089,196.497,0.035
		c3.409,0.007,3.968-0.934,3.962-4.089C358.762,269.916,358.791,215.042,358.791,160.169z M326.152,298.827
		c-46.252-0.06-92.501-0.06-138.751,0.001c-2.112,0.002-2.705-0.551-2.682-2.676c0.11-10.247,0.081-20.498,0.016-30.748
		c-0.01-1.532,0.454-2.469,1.695-3.403c14.463-10.894,28.911-21.809,43.255-32.859c1.876-1.445,2.854-0.905,4.354,0.298
		c10.327,8.287,20.76,16.441,31.041,24.783c2.084,1.692,3.456,1.767,5.693,0.178c18.215-12.94,36.536-25.731,54.828-38.564
		c0.883-0.619,1.787-1.207,3.188-2.149c0,27.97-0.024,55.221,0.048,82.47C328.841,298.285,328.258,298.83,326.152,298.827z"/>
</g>
</svg>
