<?xml version="1.0" encoding="utf-8"?>
<!-- Generator: Adobe Illustrator 16.0.0, SVG Export Plug-In . SVG Version: 6.00 Build 0)  -->
<!DOCTYPE svg PUBLIC "-//W3C//DTD SVG 1.1//EN" "http://www.w3.org/Graphics/SVG/1.1/DTD/svg11.dtd">
<svg version="1.1" id="Layer_1" xmlns="http://www.w3.org/2000/svg" xmlns:xlink="http://www.w3.org/1999/xlink" x="0px" y="0px"
	 width="512px" height="512px" viewBox="0 0 512 512" enable-background="new 0 0 512 512" xml:space="preserve">
<path fill="#8B5CF6" d="M272.619,461.436c-10.667,0-21.335,0-32.002,0c-1.829-4.36-1.579-9.096-2.372-13.64
	c-5.513-31.625-30.867-56.997-62.354-62.332c-27.186-4.604-50.382,3.287-69.556,22.674c-13.244,13.393-19.857,30.059-21.458,48.752
	c-0.134,1.573,0.159,3.236-1.073,4.546c-10.001,0-20.002-0.054-30.002,0.053c-1.721,0.018-2.166-0.32-2.05-2.056
	c0.185-2.788,0.05-5.598,0.05-8.396c0.909-5.209,0.673-10.55,2.039-15.717c8.321-31.488,26.47-55.427,54.895-71.415
	c2.691-1.514,2.628-2.652,0.895-4.795c-8.227-10.17-13.394-21.674-15.061-34.727c-2.152-16.854,1.619-32.32,10.967-46.384
	c8.955-13.472,21.393-22.478,36.768-27.375c2.751-0.876,4.069-2.278,4.629-5.187c6.698-34.786,25.564-60.927,56.329-78.419
	c2.909-1.653,2.227-2.904,0.651-4.856c-8.313-10.3-13.418-21.972-15.027-35.164c-1.806-14.808,1.121-28.721,8.444-41.557
	c7.834-13.731,19.24-23.592,33.922-29.747c5.883-2.466,12.007-3.093,18.166-3.895c4.8,0,9.601,0,14.401,0
	c6.715,0.763,13.318,1.668,19.617,4.576c22.481,10.384,36.149,27.57,40.432,51.953c3.286,18.71-1.419,35.645-12.373,50.979
	c-0.853,1.192-1.705,2.391-2.653,3.505c-1.5,1.763-1.249,2.923,0.859,4.012c10.041,5.187,18.624,12.233,26.563,20.266
	c15.864,16.053,25.586,35.229,29.827,57.238c0.697,3.62,2.08,5.439,5.66,6.597c29.938,9.677,49.224,37.748,47.419,69.177
	c-0.731,12.768-5.047,24.455-12.463,34.936c-1.078,1.523-2.152,3.061-3.38,4.459c-1.625,1.852-1.611,3.102,0.821,4.219
	c5.113,2.352,9.67,5.629,14.102,9.053c20.999,16.219,34.754,37.188,41.248,62.938c1.341,5.312,1.079,10.78,1.938,16.13
	c0,3.2,1.249,7.649-0.352,9.249c-1.6,1.601-6.049,0.352-9.249,0.352c-7.467,0-14.935,0-22.402,0
	c-1.828-4.36-1.579-9.096-2.371-13.64c-5.513-31.625-30.865-56.997-62.354-62.332c-27.186-4.604-50.383,3.287-69.557,22.674
	c-13.243,13.393-19.856,30.059-21.457,48.752C273.559,458.463,273.852,460.126,272.619,461.436z M300.436,363.406
	c3.638-1.883,0.305-3.02-0.486-3.941c-31.117-36.238-15.006-93.146,30.59-107.514c3.036-0.957,3.098-2.184,2.482-4.792
	c-8.426-35.737-39.853-60.88-76.312-60.938c-36.552-0.058-68.196,25.254-76.563,61.143c-0.577,2.477-0.449,3.637,2.374,4.539
	c45.946,14.666,61.98,71.214,30.496,107.617c-2.278,2.635-1.584,3.267,1.015,4.582c7.634,3.863,14.556,8.822,20.986,14.472
	c8.344,7.329,15.368,15.786,21.605,25.645C267.896,386.357,282.264,372.807,300.436,363.406z M221.44,119.059
	c0.055,19.134,15.999,35.077,35.13,35.125c19.228,0.049,35.479-16.3,35.226-35.431c-0.256-19.22-16.3-35.079-35.331-34.925
	C237.273,83.983,221.385,99.966,221.44,119.059z M162.475,280.646c-18.98-0.267-35.072,15.539-35.443,34.813
	c-0.367,19.082,15.829,35.477,35.113,35.543c19.086,0.066,35.075-15.816,35.243-35.014
	C197.554,296.969,181.695,280.913,162.475,280.646z M315.848,315.684c-0.141,19.043,15.723,35.075,34.939,35.317
	c19.141,0.241,35.479-16.017,35.417-35.237c-0.063-19.14-16.009-35.076-35.139-35.117
	C331.965,280.604,315.99,296.497,315.848,315.684z"/>
</svg>
